<?xml version="1.0" encoding="UTF-8"?>
<svg version="1.1" xmlns="http://www.w3.org/2000/svg" width="512" height="512">
<path d="M0 0 C0.72896484 0.52158691 1.45792969 1.04317383 2.20898438 1.58056641 C4.37860946 3.14459225 6.53616778 4.72342211 8.6875 6.3125 C9.64064087 7.01342773 9.64064087 7.01342773 10.61303711 7.72851562 C14.46462787 10.63321218 17.85510896 13.77252321 21.21826172 17.22705078 C22.95548645 18.95570603 24.75383973 20.54259687 26.62109375 22.12890625 C32.12025446 26.87824162 37.20176804 32.05252338 42.32739258 37.19702148 C44.058947 38.933936 45.79578359 40.66543889 47.53320312 42.39648438 C55.65902001 50.51618769 63.19283613 58.90664408 70.375 67.875 C74.09251308 72.49385782 77.84905519 77.01815561 81.875 81.375 C101.24535651 102.65063748 107.98501549 126.65437092 107.17041016 154.88867188 C106.33766498 170.09283314 98.66999566 185.26994086 89.0546875 196.88671875 C87.72192029 198.98008632 87.72192029 198.98008632 88.6015625 201.34765625 C89.29378906 202.66056641 89.29378906 202.66056641 90 204 C90.81984375 205.60101563 90.81984375 205.60101563 91.65625 207.234375 C92.2646875 208.39453125 92.873125 209.5546875 93.5 210.75 C100.94348009 225.49971803 100.83936355 241.39733361 95.73193359 256.98242188 C87.33033445 280.14146636 69.63595422 299.0198615 49 312 C48.39639648 312.38349609 47.79279297 312.76699219 47.17089844 313.16210938 C32.82785138 322.12369922 16.6083949 328.69895257 0 332 C0.46253728 336.23992503 1.0347505 340.297346 2.0625 344.4375 C3.39096477 350.27469367 3.85398702 355.53292638 1.875 361.25 C-0.9747947 365.4296989 -4.10592971 368.36864324 -9 370 C-10.38953457 370.10508124 -11.7833802 370.15836805 -13.17675781 370.17700195 C-14.01482971 370.18983719 -14.85290161 370.20267242 -15.71636963 370.21589661 C-17.07106354 370.22697701 -17.07106354 370.22697701 -18.453125 370.23828125 C-19.38670837 370.246353 -20.32029175 370.25442474 -21.28216553 370.26274109 C-23.25921782 370.27657233 -25.23629389 370.28729878 -27.21337891 370.29516602 C-30.22474927 370.31235586 -33.23501501 370.35624787 -36.24609375 370.40039062 C-38.16926278 370.41052006 -40.09244112 370.41903538 -42.015625 370.42578125 C-42.91065735 370.44328934 -43.8056897 370.46079742 -44.72784424 370.47883606 C-51.64284657 370.45505474 -55.66429299 368.88730592 -60.96875 364.29589844 C-61.4740625 363.7393457 -61.979375 363.18279297 -62.5 362.609375 C-63.35984497 361.67508667 -63.35984497 361.67508667 -64.23706055 360.72192383 C-65.10971558 359.74582153 -65.10971558 359.74582153 -66 358.75 C-66.61593018 358.07541748 -67.23186035 357.40083496 -67.86645508 356.70581055 C-71.37147863 352.85488733 -74.83384149 348.96649811 -78.23046875 345.01953125 C-80.60884497 342.3051372 -83.05512354 339.65430875 -85.5 337 C-88.57822523 333.65631219 -91.64083581 330.30331886 -94.625 326.875 C-95.15867187 326.26269531 -95.69234375 325.65039062 -96.2421875 325.01953125 C-97.603214 323.45586303 -98.96218697 321.89040728 -100.3203125 320.32421875 C-101.12210937 319.41285156 -101.92390625 318.50148438 -102.75 317.5625 C-103.85601562 316.29599609 -103.85601562 316.29599609 -104.984375 315.00390625 C-108.32129854 311.68638343 -111.7786957 311.79112363 -116.30883789 311.4050293 C-128.9536094 310.30639532 -142.28754692 308.35346355 -153 301 C-153.65742188 300.19949219 -154.31484375 299.39898437 -154.9921875 298.57421875 C-157.56469875 295.46930132 -159.33320756 293.75551372 -163 292 C-170.06724259 291.69081673 -177.12960132 293.34640348 -184.06201172 294.55175781 C-206.72280493 298.00906347 -229.83046313 292.17674884 -248.4921875 279.27734375 C-258.10721499 272.17128808 -264.41434446 262.79634928 -271 253 C-271.74121094 253.31453125 -272.48242188 253.6290625 -273.24609375 253.953125 C-295.73100038 263.09019844 -319.96866801 266.30632566 -342.9296875 256.78515625 C-356.65853096 250.07630215 -367.32444112 237.55872068 -375.1875 224.78125 C-376.95798731 222.06446775 -378.86602248 219.61724639 -380.9375 217.125 C-400.3290135 193.35355005 -406.5881519 167.19219567 -405 137 C-402.33249849 112.74091718 -388.48738565 89.51637219 -373 71.25 C-369.41789437 66.87666621 -366.79539212 62.20554734 -364.125 57.25 C-346.71045021 25.02058442 -318.8436408 2.2884031 -283.82421875 -8.6484375 C-278.67153301 -10.16074279 -273.44195454 -11.22089907 -268.1875 -12.3125 C-258.56753063 -14.33064605 -250.08235274 -17.70162866 -241.1484375 -21.73046875 C-162.09702814 -57.22750591 -70.754021 -50.72223631 0 0 Z M-210 2 C-209.63648438 2.46148437 -209.27296875 2.92296875 -208.8984375 3.3984375 C-196.98634431 18.85361482 -196.98634431 18.85361482 -197.61328125 27.7421875 C-198.46648453 32.72351573 -200.01182276 35.23828004 -204 38.3125 C-208.99354468 41.12136888 -213.26178443 41.92123031 -218.91796875 40.52734375 C-225.13744795 38.05693185 -228.068276 33.17867216 -231.82421875 27.859375 C-235.18710288 23.43992943 -238.68237301 20.77254233 -244 19 C-265.54637985 16.61353388 -291.05455692 27.21135018 -307.77539062 40.40039062 C-321.59964583 51.99042276 -338.26045349 70.11591969 -340.20263672 88.96679688 C-341.11578633 103.22622926 -338.44013093 114.62689388 -329.40625 126.0078125 C-321.90531359 134.18100265 -313.09857921 136.57897594 -302.4206543 137.83691406 C-296.41644789 138.61652875 -292.1153347 140.37406726 -288.1875 145.25 C-285.93783009 150.4597619 -285.36713835 154.8865244 -287.125 160.25 C-289.0331107 164.59435919 -291.33864435 166.86700602 -295.76171875 168.75 C-308.79983277 172.72352046 -324.98956816 167.21338756 -336.5625 161.3125 C-350.66504914 153.17563352 -360.45126172 141.87452111 -367 127 C-373.78787719 137.18181578 -373.40797036 152.17263937 -371.30859375 163.84375 C-366.36004229 182.56128357 -354.58769886 196.61548675 -342.48632812 211.20703125 C-341.21840799 212.73653281 -339.95978455 214.2737332 -338.703125 215.8125 C-333.80667776 221.60989353 -328.3072712 226.56424293 -321 229 C-297.51311984 230.83679447 -272.03863543 219.87319472 -254.16015625 204.94140625 C-249.34952649 200.61792887 -245.92379131 196.3057604 -244 190 C-244.04615517 187.7509842 -244.32284505 185.61849383 -244.65625 183.39453125 C-245.46592259 177.7544256 -246.01826967 172.24492175 -243.3125 167.0625 C-239.93960422 162.59569207 -237.61664125 161.37103242 -232.1875 160.125 C-226.61167849 159.60852504 -222.09527103 161.41438949 -217.6875 164.75 C-211.00575699 173.65899068 -210.94958533 185.34117681 -212 196 C-213.73098671 205.48173945 -217.90424626 213.59050623 -224 221 C-224.8353125 222.05960937 -224.8353125 222.05960937 -225.6875 223.140625 C-229.87573668 228.22080098 -234.68406068 232.14262907 -240 236 C-239.27406358 243.04285681 -233.92053183 247.35245191 -229 252 C-216.90798695 261.25998534 -201.61838742 263.41090513 -186.75976562 261.74951172 C-178.67695359 260.67169239 -170.72140635 259.2433016 -162.8125 257.25 C-156.63660079 255.75899511 -152.16713787 255.56039188 -146.25 258.25 C-142.66922154 261.03504991 -140.4821086 263.92621266 -138.625 268.0625 C-135.72119951 273.3116778 -131.49167676 275.041818 -125.9375 276.6875 C-119.20634775 278.26682932 -112.45002794 278.44697031 -105.56225586 278.53393555 C-98.83312676 278.68820116 -93.21334632 279.52270224 -87.71484375 283.76171875 C-87.12832031 284.39722656 -86.54179687 285.03273438 -85.9375 285.6875 C-84.93976563 286.75291016 -84.93976563 286.75291016 -83.921875 287.83984375 C-83.28765625 288.55269531 -82.6534375 289.26554687 -82 290 C-81.44828125 290.62003906 -80.8965625 291.24007813 -80.328125 291.87890625 C-79.20602232 293.15863764 -78.09041916 294.4440894 -76.98046875 295.734375 C-74.53394232 298.53316263 -72.01923279 301.26689817 -69.5 304 C-65.9008944 307.90825722 -62.35789034 311.85559164 -58.87890625 315.87109375 C-55.96822804 319.16905555 -52.98227855 322.39841141 -49.98974609 325.62207031 C-47.40866404 328.41354234 -44.97166616 331.26057773 -42.625 334.25 C-40.29174795 337.25527486 -40.29174795 337.25527486 -37.125 337.4375 C-36.42375 337.293125 -35.7225 337.14875 -35 337 C-35.46659049 332.72292055 -36.05239237 328.66722558 -37.125 324.5 C-38.46049502 318.62179844 -38.13032128 314.1395367 -35.25 308.6875 C-30.250583 302.71597414 -24.64741795 302.25162696 -17.3125 301.1875 C10.10180381 296.74484875 39.07798302 284.4399 55.96484375 261.30859375 C61.9528832 252.2062674 66.91478505 243.16037764 66 232 C63.64839878 222.6984436 58.58030383 218.38544196 51.125 212.875 C47.97207749 210.09300955 47.20441961 207.84921124 46.74609375 203.703125 C46.45560607 197.51854867 47.29405834 193.97376381 51 189 C52.41841901 187.80723856 53.84008414 186.61715722 55.30078125 185.4765625 C65.64803602 176.48515491 73.19117548 162.09907285 74.28125 148.48828125 C75.1322823 131.55315568 68.95159027 117.56975262 57.625 105 C56.48417969 103.77603516 56.48417969 103.77603516 55.3203125 102.52734375 C50.55725451 97.33929911 46.22415898 91.77421981 41.8203125 86.28125 C36.56703637 79.77541337 31.0466701 73.59779069 25.36083984 67.47412109 C21.86532205 63.68762371 18.43882607 59.83789971 15 56 C13.09087607 58.36466326 11.19916074 60.73009117 9.39453125 63.17578125 C2.16419116 72.94120354 -7.00764185 81.75646536 -19.26171875 84.5078125 C-24.42701823 84.81225058 -28.8539541 82.90414275 -33 80 C-36.53777603 76.00573674 -37.09574284 71.19622493 -37 66 C-36.46156712 61.65235544 -35.1471018 58.97140135 -31.78125 56.12109375 C-29.2280995 54.34080959 -26.63550154 52.65542441 -24 51 C-18.43411237 47.32939307 -14.99540716 42.35353524 -13 36 C-12.77899718 33.43510962 -12.77899718 33.43510962 -14 31 C-16.22734214 29.07389676 -18.29808246 27.52515696 -20.75 25.9375 C-21.45084717 25.47069824 -22.15169434 25.00389648 -22.8737793 24.52294922 C-31.96239011 18.5691933 -41.38621806 13.06064569 -51 8 C-51.9595459 7.49436523 -52.9190918 6.98873047 -53.90771484 6.46777344 C-54.87016113 5.99114258 -55.83260742 5.51451172 -56.82421875 5.0234375 C-57.69522217 4.58692871 -58.56622559 4.15041992 -59.46362305 3.70068359 C-62.72676598 2.79922819 -64.05528601 3.43051943 -67 5 C-82.35377617 15.9186828 -92.04813304 30.3971684 -95.63598633 49.08032227 C-96.51786088 56.15365411 -95.98395938 63.3694259 -95.74609375 70.4765625 C-95.61563038 77.84390595 -95.83817983 82.81290905 -100 89 C-104.2368651 92.66495548 -108.3044542 93.60372683 -113.859375 93.3203125 C-118.28924243 92.65744913 -121.08366316 90.89088304 -124.25 87.8125 C-132.66896506 74.28202044 -129.11913895 50.5817152 -125.83862305 35.76489258 C-121.77118064 19.2455338 -113.86006923 6.00387511 -103 -7 C-105.82208703 -9.82208703 -108.81690239 -9.72748734 -112.625 -10.125 C-113.41696777 -10.2077417 -114.20893555 -10.2904834 -115.02490234 -10.37573242 C-147.21444927 -13.3890506 -179.49396339 -8.40481655 -210 2 Z " fill="#000000" transform="translate(405,93)"/>
<path d="M0 0 C13.45482021 6.96681972 22.68035727 18.77218153 27.6953125 32.84375 C33.31567079 51.70268662 30.19900426 70.49157607 25.6953125 89.19921875 C26.43394531 89.72128906 27.17257812 90.24335938 27.93359375 90.78125 C44.46757343 102.77731403 59.3239504 118.03613539 62.77539062 138.93652344 C63.96432518 147.3023709 64.62802281 156.4875732 60.65234375 164.23046875 C57.99518161 167.73895469 54.79903782 169.77869845 50.6953125 171.19921875 C45.0052322 171.93606368 40.53819955 171.50118719 35.6953125 168.19921875 C31.18406079 163.72464389 29.6596707 160.20178221 29.55834961 153.85546875 C29.30258196 143.25902749 26.48545592 134.99168219 19.1953125 127.01171875 C4.64434836 113.70560896 -15.79939514 104.21520843 -35.7109375 104.91796875 C-43.73216071 105.78773994 -49.84767028 108.16281452 -55.3046875 114.19921875 C-56.3439374 115.58139494 -57.36475397 116.97761322 -58.3671875 118.38671875 C-60.97617277 121.96808173 -62.94752787 123.85855425 -67.3046875 125.19921875 C-72.19940383 125.84048341 -76.69252014 125.87547752 -81.1796875 123.63671875 C-85.65605596 120.14515135 -87.78306469 117.15659331 -88.75390625 111.65234375 C-89.239085 104.01886468 -86.78628442 99.21942844 -82.3046875 93.19921875 C-81.84835938 92.56113281 -81.39203125 91.92304688 -80.921875 91.265625 C-71.50084725 79.17979225 -56.07653758 73.1259818 -41.3046875 71.19921875 C-29.64426731 70.27421416 -18.66365076 71.59934705 -7.3046875 74.19921875 C-4.84846607 67.93374878 -3.78202768 62.42071293 -3.8671875 55.69921875 C-3.87745972 54.45084229 -3.87745972 54.45084229 -3.88793945 53.17724609 C-4.08942529 45.49361752 -5.64485658 40.36226093 -10.6171875 34.44921875 C-12.67990775 32.72229017 -14.62768867 31.33665068 -16.8671875 29.88671875 C-20.88013191 27.09167669 -22.80935138 23.81794926 -24.3046875 19.19921875 C-25.14588318 13.31084899 -23.56033405 9.03017815 -20.3046875 4.19921875 C-14.60628774 -1.22121029 -7.49364654 -2.60372464 0 0 Z " fill="#000000" transform="translate(337.3046875,190.80078125)"/>
<path d="M0 0 C4.59596641 2.32782714 7.12369109 5.65597182 8.9296875 10.3515625 C13.49761889 24.45256808 9.34438029 36.67135583 2.9296875 49.3515625 C9.65790124 56.94101887 9.65790124 56.94101887 18.9296875 60.3515625 C21.28139881 59.75294508 23.6156253 59.08231898 25.9296875 58.3515625 C32.62642748 58.27060019 36.96614264 59.8960539 42.1171875 64.1640625 C45.40569108 68.13294614 46.15248201 71.80430067 45.8046875 76.8515625 C45.04072815 81.96751499 43.29024023 85.42894036 39.203125 88.7578125 C31.32848202 94.15398219 22.30935684 95.34280893 12.9296875 94.3515625 C-1.4588803 91.29681228 -14.50801993 83.52047991 -23.0703125 71.3515625 C-26.78820164 72.0084573 -30.19406372 73.05456129 -33.7578125 74.2890625 C-48.85929438 78.94748572 -66.67057501 80.81289713 -81.21484375 73.41796875 C-88.39675481 69.29025987 -95.28011374 63.93196001 -99.0703125 56.3515625 C-99.78942046 49.24300349 -99.58424138 44.02290904 -95.0703125 38.3515625 C-90.07936727 34.37917752 -85.99373297 33.71785596 -79.65625 33.9609375 C-74.03328332 34.81032824 -70.90741551 38.51445949 -67.0703125 42.3515625 C-57.58800782 45.51233073 -46.91139855 43.51566518 -38.0703125 39.3515625 C-32.38531637 36.108602 -26.56423376 32.58636565 -24.0703125 26.3515625 C-23.97558054 22.81633785 -24.07510838 19.3081739 -24.17578125 15.7734375 C-23.98786583 9.67662597 -21.84789603 6.04243463 -17.5078125 1.9140625 C-12.31513075 -1.41457965 -5.87606995 -1.84042946 0 0 Z " fill="#000000" transform="translate(231.0703125,140.6484375)"/>
<path d="M0 0 C4.00554271 3.61475806 7.14562244 6.7861259 7.80078125 12.328125 C8.03094564 19.25728454 6.47980772 23.18466492 1.66796875 28.34375 C-3.03176301 31.32320259 -8.01681396 31.99413284 -13.4375 33 C-14.51773438 33.21205078 -15.59796875 33.42410156 -16.7109375 33.64257812 C-18.72140608 34.03598463 -20.73301945 34.42361885 -22.74609375 34.8034668 C-24.514046 35.13784456 -26.27868387 35.49035166 -28.0390625 35.86254883 C-34.29613634 37.03638709 -39.09344578 36.91392784 -44.4375 33.3125 C-48.24451424 30.02259776 -50.69800192 26.9223575 -51.5 21.875 C-51.70203669 17.3136333 -50.9888258 13.15119204 -48.4375 9.3125 C-43.85464132 4.68791575 -40.00806463 3.28250099 -33.6875 2.125 C-32.48661743 1.88475098 -32.48661743 1.88475098 -31.26147461 1.63964844 C-29.68661013 1.32579417 -28.11037583 1.0187186 -26.53271484 0.71923828 C-24.00686989 0.22890296 -21.50716802 -0.36016501 -19 -0.9375 C-12.47011839 -2.17806473 -6.08479228 -2.98707985 0 0 Z " fill="#000000" transform="translate(444.4375,220.6875)"/>
</svg>
